<?xml version="1.0" standalone="no"?>
<!DOCTYPE svg PUBLIC "-//W3C//DTD SVG 20010904//EN"
 "http://www.w3.org/TR/2001/REC-SVG-20010904/DTD/svg10.dtd">
<svg version="1.0" xmlns="http://www.w3.org/2000/svg"
 width="2048.000000pt" height="2048.000000pt" viewBox="0 0 2048.000000 2048.000000"
 preserveAspectRatio="xMidYMid meet">

<g transform="translate(0.000000,2048.000000) scale(0.100000,-0.100000)"
fill="#808080" stroke="none">
<path d="M9810 20469 c-1440 -60 -2839 -421 -4130 -1065 -1022 -511 -1866
-1119 -2675 -1929 -273 -272 -415 -427 -631 -685 -1132 -1356 -1904 -3008
-2209 -4723 -116 -654 -159 -1149 -159 -1827 0 -526 19 -844 80 -1320 236
-1853 984 -3614 2158 -5080 1673 -2090 4100 -3448 6736 -3770 500 -60 762 -73
1390 -67 559 5 730 16 1180 72 2924 368 5580 2017 7220 4485 263 394 448 715
660 1145 580 1174 906 2355 1026 3715 21 244 31 1113 15 1388 -65 1126 -301
2195 -712 3222 -661 1656 -1744 3111 -3144 4226 -1056 841 -2283 1470 -3590
1840 -1024 289 -2132 418 -3215 373z m4778 -6165 c157 -31 273 -108 329 -217
58 -116 88 -345 72 -550 -72 -899 -487 -3606 -964 -6298 -192 -1079 -227
-1252 -295 -1459 -103 -316 -244 -523 -416 -612 -92 -48 -158 -62 -284 -61
-128 0 -225 16 -350 55 -212 67 -394 171 -790 449 -151 106 -446 306 -655 444
-209 138 -607 406 -885 595 -278 189 -669 454 -870 589 -415 278 -455 307
-564 411 -275 262 -295 494 -67 786 89 116 532 553 986 974 1508 1401 2261
2134 2398 2336 39 59 44 85 27 146 -39 138 -178 153 -369 41 -275 -162 -1579
-1027 -3271 -2169 -536 -362 -1015 -683 -1065 -715 -384 -241 -735 -346 -1060
-318 -342 29 -821 150 -1685 423 -576 182 -720 244 -841 365 -80 80 -104 139
-97 236 7 81 42 145 122 224 77 76 124 110 258 187 146 84 29 32 3733 1636
2969 1286 4922 2090 5721 2357 443 148 678 187 882 145z"/>
</g>
</svg>
